<?xml version="1.0" standalone="no"?>
<!DOCTYPE svg PUBLIC "-//W3C//DTD SVG 20010904//EN"
 "http://www.w3.org/TR/2001/REC-SVG-20010904/DTD/svg10.dtd">
<svg version="1.0" xmlns="http://www.w3.org/2000/svg"
 width="1080.000000pt" height="1080.000000pt" viewBox="0 0 1080.000000 1080.000000"
 preserveAspectRatio="xMidYMid meet">
<metadata>
Created by potrace 1.15, written by Peter Selinger 2001-2017
</metadata>
<g transform="translate(0.000000,1080.000000) scale(0.100000,-0.100000)"
fill="#337ab7" stroke="none">
<path d="M4600 10005 l-795 -795 -1117 0 -1118 0 0 -1118 0 -1117 -785 -785
c-432 -432 -785 -792 -785 -800 0 -8 353 -368 785 -800 l785 -785 0 -1117 0
-1118 1118 0 1117 0 785 -785 c517 -517 792 -785 805 -785 13 0 289 269 805
785 l785 785 1112 0 1113 0 0 1113 0 1112 797 798 798 797 -798 798 -797 797
0 1113 0 1112 -1112 0 -1113 0 -795 795 -795 795 -795 -795z m1198 -508 l422
-422 -425 -425 -425 -425 -425 425 -425 425 422 422 c233 233 425 423 428 423
3 0 195 -190 428 -423z m2822 -1477 l0 -600 -600 0 -600 0 0 600 0 600 600 0
600 0 0 -600z m-5290 -10 l0 -600 -600 0 -600 0 0 600 0 600 600 0 600 0 0
-600z m2371 175 c511 -54 977 -240 1407 -562 140 -104 398 -358 502 -493 310
-404 494 -831 571 -1331 33 -209 33 -609 0 -819 -78 -504 -269 -944 -583
-1344 -115 -145 -350 -374 -500 -487 -381 -286 -813 -467 -1291 -541 -206 -32
-608 -32 -814 0 -623 97 -1175 379 -1604 819 -689 708 -955 1707 -709 2668
124 489 369 915 735 1280 398 399 876 658 1420 770 261 54 591 69 866 40z
m-3622 -3241 l-424 -424 -425 425 -425 425 425 425 424 424 425 -425 425 -425
-425 -425z m7431 1 l-425 -425 -424 425 -425 425 425 425 424 424 425 -424
425 -425 -425 -425z m-910 -2205 l0 -600 -600 0 -600 0 0 600 0 600 600 0 600
0 0 -600z m-5270 -10 l0 -600 -600 0 -600 0 0 600 0 600 600 0 600 0 0 -600z
m2468 -653 l422 -422 -425 -425 -425 -425 -425 425 -425 425 422 422 c233 233
425 423 428 423 3 0 195 -190 428 -423z"/>
<path d="M5315 7803 c-587 -18 -1163 -262 -1593 -677 -273 -264 -491 -610
-611 -971 -86 -261 -121 -482 -121 -765 0 -283 35 -504 121 -765 221 -665 725
-1203 1379 -1471 188 -77 431 -139 643 -164 133 -16 429 -13 575 5 149 19 387
78 528 130 854 316 1463 1095 1564 2000 13 119 13 411 -1 533 -61 558 -326
1091 -735 1482 -129 123 -255 218 -421 318 -401 243 -849 359 -1328 345z
m-1525 -2248 l0 -675 -115 0 -115 0 0 675 0 675 115 0 115 0 0 -675z m613 255
c82 -26 154 -88 188 -162 23 -52 24 -59 27 -410 l4 -358 -116 0 -116 0 0 334
0 335 -24 28 -24 28 -226 3 -226 4 0 109 0 109 224 0 c196 0 232 -3 289 -20z
m1048 4 c30 -9 69 -25 87 -36 l32 -20 0 36 0 36 174 0 c223 0 283 -15 361 -93
87 -87 88 -95 93 -504 l4 -353 -116 0 -116 0 0 334 0 335 -24 28 c-24 27 -25
28 -146 28 l-122 0 2 -362 1 -363 -110 0 -110 0 -3 335 -3 335 -28 27 -27 28
-170 4 -170 3 0 -366 0 -366 -115 0 -115 0 0 425 c0 474 1 483 62 510 50 22
484 21 559 -1z m1189 -344 l0 -360 23 0 c13 0 47 7 75 15 205 61 424 312 539
615 l32 85 116 3 117 3 -6 -28 c-14 -57 -80 -211 -133 -313 -157 -301 -357
-485 -626 -575 -105 -35 -258 -45 -306 -21 -60 32 -61 40 -61 511 l0 425 115
0 115 0 0 -360z"/>
</g>
</svg>
