<?xml version="1.0" standalone="no"?>
<!DOCTYPE svg PUBLIC "-//W3C//DTD SVG 20010904//EN"
 "http://www.w3.org/TR/2001/REC-SVG-20010904/DTD/svg10.dtd">
<svg version="1.0" xmlns="http://www.w3.org/2000/svg"
 width="1080.000000pt" height="1080.000000pt" viewBox="0 0 1080.000000 1080.000000"
 preserveAspectRatio="xMidYMid meet">
<metadata>
Created by potrace 1.15, written by Peter Selinger 2001-2017
</metadata>
<g transform="translate(0.000000,1080.000000) scale(0.100000,-0.100000)"
fill="#337ab7" stroke="none">
<path d="M4600 10005 l-795 -795 -1112 0 -1113 0 0 -1113 0 -1112 -790 -790
c-434 -434 -790 -797 -790 -805 0 -8 356 -370 790 -805 l790 -790 0 -1112 0
-1113 1113 0 1112 0 785 -785 c517 -517 792 -785 805 -785 13 0 289 269 805
785 l785 785 1117 0 1118 0 0 1118 0 1117 792 793 793 792 -793 793 -792 792
0 1118 0 1117 -1117 0 -1118 0 -795 795 -795 795 -795 -795z m1197 -427 c233
-233 423 -427 423 -432 0 -4 -191 -200 -425 -434 l-425 -426 -425 425 c-233
233 -425 428 -425 434 0 10 840 855 850 855 3 0 195 -190 427 -422z m2873
-1513 l0 -605 -605 0 -605 0 0 605 0 605 605 0 605 0 0 -605z m-5360 -40 l0
-605 -605 0 -605 0 0 605 0 605 605 0 605 0 0 -605z m2361 170 c1047 -105
1938 -769 2339 -1745 262 -638 275 -1390 35 -2031 -255 -682 -752 -1235 -1390
-1549 -419 -206 -791 -293 -1255 -293 -464 0 -836 87 -1255 293 -767 377
-1330 1106 -1504 1947 -41 197 -54 339 -54 573 -1 462 87 835 293 1255 136
277 305 511 529 736 598 598 1429 897 2262 814z m-3605 -2395 c230 -230 420
-423 422 -428 2 -8 -835 -852 -846 -852 -4 0 -198 191 -432 425 l-425 425 425
425 c234 234 427 425 431 425 3 0 194 -189 425 -420z m7524 -5 l425 -425 -425
-425 c-234 -234 -428 -425 -432 -425 -12 0 -849 843 -845 853 3 11 838 847
846 847 3 0 197 -191 431 -425z m-6260 -3070 l0 -605 -605 0 -605 0 0 605 0
605 605 0 605 0 0 -605z m5320 -30 l0 -605 -605 0 -605 0 0 605 0 605 605 0
605 0 0 -605z m-2854 -630 c233 -233 424 -428 424 -432 0 -4 -191 -199 -425
-433 l-425 -425 -425 425 c-234 234 -425 429 -425 433 0 8 840 856 848 857 2
0 195 -191 428 -425z"/>
<path d="M5175 7789 c-237 -22 -516 -94 -731 -189 -162 -71 -224 -105 -382
-209 -888 -587 -1280 -1708 -956 -2733 292 -920 1116 -1579 2084 -1667 231
-22 440 -9 681 40 462 93 856 298 1194 620 982 938 990 2513 18 3460 -124 122
-208 189 -345 280 -158 104 -220 138 -382 209 -358 157 -787 226 -1181 189z
m-1430 -2174 l0 -750 -117 -3 -118 -3 0 756 0 756 118 -3 117 -3 0 -750z m637
276 c66 -32 125 -93 156 -159 l27 -57 3 -407 3 -408 -115 0 -115 0 -3 373 c-2
204 -7 379 -11 388 -17 34 -54 39 -277 39 l-220 0 0 131 0 130 253 -3 c241 -3
254 -4 299 -27z m1071 -8 l57 -31 0 34 0 34 184 0 c146 0 195 -4 236 -17 70
-23 159 -104 191 -175 24 -53 24 -56 27 -460 l3 -408 -115 0 -115 0 -3 373
c-2 204 -7 379 -11 388 -14 29 -56 39 -165 39 l-107 0 0 -397 0 -398 -117 -3
-118 -3 0 359 c0 225 -4 370 -10 389 -17 46 -44 53 -220 53 l-160 0 0 -400 0
-400 -115 0 -115 0 0 485 c0 531 0 528 58 560 23 12 71 14 292 12 l265 -2 58
-32z m1137 -358 c0 -451 -11 -410 98 -377 201 63 421 341 534 675 l33 97 122
0 c70 0 123 -4 123 -9 0 -25 -88 -259 -136 -360 -146 -308 -323 -507 -545
-610 -107 -50 -198 -72 -305 -74 l-85 -2 -35 37 -34 38 0 490 0 490 115 0 115
0 0 -395z"/>
</g>
</svg>
