<?xml version="1.0" standalone="no"?>
<!DOCTYPE svg PUBLIC "-//W3C//DTD SVG 20010904//EN"
 "http://www.w3.org/TR/2001/REC-SVG-20010904/DTD/svg10.dtd">
<svg version="1.0" xmlns="http://www.w3.org/2000/svg"
 width="512.000000pt" height="512.000000pt" viewBox="0 0 512.000000 512.000000"
 preserveAspectRatio="xMidYMid meet">
<metadata>
Created by potrace 1.11, written by Peter Selinger 2001-2013
</metadata>
<g transform="translate(0.000000,512.000000) scale(0.100000,-0.100000)"
fill="#000000" stroke="none">
<path d="M2230 4465 l-325 -325 -461 0 -461 0 -7 -130 c-4 -71 -6 -281 -6
-466 l2 -337 -326 -326 -326 -326 325 -325 325 -325 0 -467 0 -468 467 0 467
0 323 -322 c178 -178 326 -324 331 -326 4 -1 153 144 332 323 l325 325 467 0
468 0 0 468 0 467 320 320 c176 176 320 324 320 330 0 6 -144 154 -320 330
l-320 320 0 430 c0 236 -3 447 -6 468 l-7 37 -461 0 -461 0 -325 325 c-179
179 -327 325 -330 325 -3 0 -151 -146 -330 -325z m493 -527 l-178 -178 -172
172 c-95 95 -173 177 -173 183 0 5 78 87 172 182 l173 173 177 -177 178 -178
-177 -177z m1192 -273 l0 -250 -252 -3 -253 -2 0 248 c0 137 3 252 7 256 4 3
117 5 252 4 l246 -3 0 -250z m-2217 -17 l2 -248 -255 0 -255 0 0 250 0 250
253 -2 252 -3 3 -247z m1157 38 c204 -55 407 -175 552 -328 192 -204 295 -439
319 -733 18 -228 -57 -509 -190 -710 -296 -444 -845 -633 -1348 -465 -517 173
-848 690 -788 1228 57 518 439 929 955 1028 47 9 124 12 235 10 140 -3 180 -8
265 -30z m-1675 -961 l175 -175 -178 -178 -177 -177 -177 177 -178 178 175
175 c96 96 177 175 180 175 3 0 84 -79 180 -175z m3120 0 l175 -175 -178 -178
-177 -177 -177 177 -178 178 175 175 c96 96 177 175 180 175 3 0 84 -79 180
-175z m-2600 -1275 l0 -250 -250 0 -250 0 0 250 0 250 250 0 250 0 0 -250z
m2210 -10 l0 -250 -250 0 -250 0 0 250 0 250 250 0 250 0 0 -250z m-1182 -617
c-95 -95 -177 -173 -181 -173 -11 0 -347 336 -347 347 0 4 78 85 172 180 l173
173 177 -177 178 -178 -172 -172z"/>
<path d="M2460 3549 c-91 -8 -224 -43 -314 -83 -188 -83 -369 -255 -471 -449
-205 -389 -127 -874 192 -1178 128 -121 273 -204 438 -250 101 -27 316 -37
420 -19 376 67 681 334 789 690 78 260 56 514 -67 755 -48 94 -93 156 -180
243 -211 214 -501 319 -807 291z m-600 -915 l0 -285 -47 3 -48 3 -3 283 -2
282 50 0 50 0 0 -286z m285 96 c51 -32 60 -66 60 -230 l0 -145 -47 -3 -48 -3
0 135 c0 74 -3 141 -6 150 -5 13 -24 16 -105 16 l-99 0 0 50 0 50 106 0 c89 0
112 -3 139 -20z m422 9 c19 -7 29 -7 31 0 2 7 37 11 85 11 65 0 89 -4 115 -20
52 -32 62 -69 62 -235 l0 -146 -47 3 -48 3 -5 145 -5 145 -57 3 -58 3 0 -151
0 -150 -45 0 -44 0 -3 148 -3 147 -77 3 -77 3 -3 -148 -3 -148 -47 -3 -48 -3
0 188 c0 134 4 193 12 201 15 15 225 16 265 1z m473 -134 c0 -139 1 -145 20
-145 39 0 85 28 137 82 49 53 113 161 113 193 0 12 12 15 55 15 l55 0 -20 -51
c-42 -107 -116 -218 -172 -261 -80 -61 -213 -102 -257 -79 -20 11 -21 18 -21
201 l0 190 45 0 45 0 0 -145z"/>
</g>
</svg>
