<svg version="1.1" xmlns="http://www.w3.org/2000/svg" xmlns:xlink="http://www.w3.org/1999/xlink" width="48" height="48"><defs><linearGradient x1="8.44322" y1="8.45042" x2="73.33421" y2="73.32701" gradientUnits="userSpaceOnUse" id="color-1"><stop offset="0" stop-color="#000000" stop-opacity="0.3"></stop><stop offset="1" stop-color="#000000" stop-opacity="0"></stop></linearGradient><filter id="dropshadow-base"><feColorMatrix type="matrix" values="0 0 0 0 0  0 0 0 0 0  0 0 0 0 0  0 0 0 .8 0"></feColorMatrix> <feOffset dx="0" dy="1"></feOffset> <feGaussianBlur stdDeviation="1"></feGaussianBlur> <feComposite in="SourceGraphic"></feComposite></filter><filter id="dropshadow-banner" x="-10%" y="-10%" width="120%" height="130%"><feColorMatrix type="matrix" values="0 0 0 0 0  0 0 0 0 0  0 0 0 0 0  0 0 0 .4 0"></feColorMatrix> <feOffset dx="0" dy="1"></feOffset> <feGaussianBlur stdDeviation="0.5"></feGaussianBlur> <feComposite in="SourceGraphic"></feComposite></filter></defs><g fill="none" fill-rule="nonzero" stroke="none" stroke-width="none" stroke-linecap="butt" stroke-linejoin="miter" stroke-miterlimit="10" stroke-dasharray="" stroke-dashoffset="0" font-family="none" font-weight="none" font-size="none" text-anchor="none" style="mix-blend-mode: normal"><path d="M2,24c0,-12.15026 9.84974,-22 22,-22c12.15026,0 22,9.84974 22,22c0,12.15026 -9.84974,22 -22,22c-12.15026,0 -22,-9.84974 -22,-22z" id="base 1 5" fill="#0277bd" stroke-width="1"></path><path d="M34.99269,13.02891l11.00728,11.00728c-0.01954,12.13363 -9.86177,21.96381 -21.99997,21.96381c-0.01193,0 -0.02386,-0.00001 -0.03579,-0.00003l-10.97129,-10.97129v-6.407l-2.27485,-2.27485c-1.24972,-1.2526 -2.27485,-2.295 -2.27485,-2.31804c0,-0.02304 1.02511,-1.06832 2.27485,-2.31804l2.27485,-2.27485v-6.407h6.407l4.57849,-4.57849l4.57849,4.57849z" fill="url(#color-1)" stroke-width="1"></path><path d="M23.9784,8.45042l4.57849,4.57849h6.4358v6.4358l4.56409,4.56409l-2.28348,2.28061l-2.28061,2.28348v6.4358h-6.4358l-2.26045,2.26045c-1.48585,1.48585 -2.28061,2.26045 -2.31804,2.26045c-0.03743,0 -0.82931,-0.77172 -2.31804,-2.26045l-2.26045,-2.26045h-6.407v-6.407l-2.27485,-2.27485c-1.24973,-1.25261 -2.27485,-2.295 -2.27485,-2.31804c0,-0.02304 1.02512,-1.06831 2.27485,-2.31804l2.27485,-2.27485v-6.407h6.407zM23.90641,10.75406c-0.0288,0 -2.44762,2.43322 -2.44762,2.46202c0,0.01728 0.55287,0.57879 1.22381,1.24973l1.22381,1.22381l1.22381,-1.22669c0.67382,-0.67382 1.22381,-1.23821 1.22381,-1.24973c0,-0.0144 -0.54711,-0.57303 -1.21805,-1.24397c-0.66806,-0.66806 -1.22093,-1.21517 -1.22957,-1.21517zM33.40894,14.58386h-3.48426v3.48426h3.48426zM17.97454,14.69905h-3.48426v3.48426h3.48426zM18.25961,18.29561c-0.64502,0.6479 -1.13166,1.32171 -1.52328,2.11935c-0.59319,1.20941 -0.84659,2.28348 -0.84371,3.61384c0,0.67382 0.03743,1.08271 0.1555,1.64998c0.50104,2.4217 2.12223,4.5209 4.33085,5.60649c1.20653,0.59319 2.27773,0.84371 3.61384,0.84371c1.33611,0 2.40731,-0.25052 3.61384,-0.84371c1.83715,-0.90418 3.26829,-2.49657 4.00258,-4.46043c0.69109,-1.84579 0.65366,-4.01122 -0.10078,-5.84837c-1.1547,-2.81044 -3.72038,-4.72247 -6.73527,-5.02482c-2.39867,-0.239 -4.79158,0.62198 -6.51355,2.34396zM13.16856,21.63877c-0.01152,0 -0.56727,0.54999 -1.24109,1.22381l-1.22381,1.22381l1.22381,1.22381c0.67382,0.67382 1.23245,1.22381 1.24397,1.22381c0.03168,0 2.44186,-2.43034 2.4361,-2.45338c-0.00576,-0.0144 -0.55287,-0.57015 -1.21517,-1.23245c-0.66518,-0.66518 -1.21517,-1.20941 -1.22381,-1.20941zM34.81704,21.63877c-0.02304,0 -2.42746,2.40731 -2.4361,2.43898c-0.01152,0.0288 2.39867,2.45626 2.43322,2.45626c0.01152,0 0.57015,-0.54999 1.24397,-1.22381l1.22381,-1.22381l-1.22381,-1.22381c-0.67382,-0.67382 -1.23245,-1.22381 -1.24109,-1.22381zM18.03213,29.96067h-3.48426v3.48426h3.48426zM33.35135,30.04706h-3.48426v3.48426h3.48426zM23.90066,32.3795c-0.02304,0.00288 -2.44186,2.44474 -2.44186,2.46778c0,0.01152 0.54999,0.57303 1.22381,1.24685l1.22381,1.22381l1.22381,-1.22381c0.67382,-0.67382 1.22381,-1.23533 1.22381,-1.24685c0,-0.01152 -0.54999,-0.57303 -1.22093,-1.24397c-0.67094,-0.67382 -1.22669,-1.22381 -1.23245,-1.22381zM26.74565,17.66498c0.46649,0.20445 0.64502,0.30235 1.09999,0.60183c0.3945,0.26204 0.63638,0.45497 0.99345,0.80627c2.79892,2.72694 2.77589,7.26223 -0.05183,9.96325c-0.97329,0.92722 -2.10783,1.51752 -3.43819,1.78532c-0.69397,0.1411 -1.2958,0.17853 -1.96098,0.11518c-2.78741,-0.2534 -5.16016,-2.15103 -6.00099,-4.80021c-0.93297,-2.95154 0.19581,-6.17952 2.75285,-7.86982c0.45497,-0.29947 0.6335,-0.39738 1.09999,-0.60183c0.6191,-0.27356 1.4225,-0.48089 2.10495,-0.54424c1.13454,-0.10654 2.36987,0.09215 3.40075,0.54424zM19.22714,21.22123l-0.33691,-0.00864l-0.33979,-0.00864v4.35388l0.33979,-0.00864l0.33691,-0.00864zM20.20043,22.50839l-0.72853,-0.00864v0.75156h0.6335c0.64214,0 0.74868,0.0144 0.79764,0.1123c0.01152,0.02592 0.02592,0.52984 0.03168,1.11727l0.00864,1.07407h0.6623l-0.00864,-1.17486l-0.00864,-1.17198l-0.07775,-0.16413c-0.08927,-0.19005 -0.25916,-0.3657 -0.44921,-0.45785c-0.12958,-0.06623 -0.16701,-0.06911 -0.86099,-0.07775zM23.9784,22.51703l-0.76308,-0.00576c-0.63638,-0.00576 -0.7746,0 -0.84083,0.03455c-0.16701,0.09215 -0.16701,0.08351 -0.16701,1.61255v1.39658h0.6623v-2.30364h0.46073c0.5068,0 0.58455,0.02016 0.6335,0.15262c0.01728,0.05471 0.0288,0.47225 0.0288,1.12015v1.03376l0.33979,-0.00864l0.33691,-0.00864v-2.28924h0.30811c0.31387,0 0.43481,0.0288 0.47513,0.1123c0.01152,0.02592 0.02592,0.52984 0.03168,1.11727l0.00864,1.07407h0.6623l-0.00864,-1.17486c-0.00864,-1.16334 -0.00864,-1.17198 -0.07775,-1.32459c-0.09215,-0.20445 -0.34843,-0.43769 -0.54999,-0.50392c-0.11806,-0.03743 -0.25916,-0.04895 -0.67957,-0.04895h-0.52984v0.19581l-0.16413,-0.08927zM27.41947,22.50263h-0.6623v2.82196l0.0979,0.10942l0.10078,0.10654l0.24476,-0.00576c0.30811,-0.00576 0.57015,-0.06911 0.87826,-0.21309c0.63926,-0.29659 1.14894,-0.86962 1.56936,-1.75653c0.13822,-0.29083 0.39162,-0.96465 0.39162,-1.03664c0,-0.0144 -0.15262,-0.02592 -0.35418,-0.02592h-0.35131l-0.09503,0.27932c-0.32539,0.96177 -0.95889,1.76229 -1.53768,1.9437c-0.31387,0.09503 -0.2822,0.21309 -0.2822,-1.08559z" fill="none" stroke-width="0"></path><path d="M23.9784,8.45042l4.57849,4.57849h6.4358v6.4358l4.56409,4.56409l-2.28348,2.28061l-2.28061,2.28348v6.4358h-6.4358l-2.26045,2.26045c-1.48585,1.48585 -2.28061,2.26045 -2.31804,2.26045c-0.03743,0 -0.82931,-0.77172 -2.31804,-2.26045l-2.26045,-2.26045h-6.407v-6.407l-2.27485,-2.27485c-1.24973,-1.25261 -2.27485,-2.295 -2.27485,-2.31804c0,-0.02304 1.02512,-1.06831 2.27485,-2.31804l2.27485,-2.27485v-6.407h6.407zM23.90641,10.75406c-0.0288,0 -2.44762,2.43322 -2.44762,2.46202c0,0.01728 0.55287,0.57879 1.22381,1.24973l1.22381,1.22381l1.22381,-1.22669c0.67382,-0.67382 1.22381,-1.23821 1.22381,-1.24973c0,-0.0144 -0.54711,-0.57303 -1.21805,-1.24397c-0.66806,-0.66806 -1.22093,-1.21517 -1.22957,-1.21517zM33.40894,14.58386h-3.48426v3.48426h3.48426zM17.97454,14.69905h-3.48426v3.48426h3.48426zM18.25961,18.29561c-0.64502,0.6479 -1.13166,1.32171 -1.52328,2.11935c-0.59319,1.20941 -0.84659,2.28348 -0.84371,3.61384c0,0.67382 0.03743,1.08271 0.1555,1.64998c0.50104,2.4217 2.12223,4.5209 4.33085,5.60649c1.20653,0.59319 2.27773,0.84371 3.61384,0.84371c1.33611,0 2.40731,-0.25052 3.61384,-0.84371c1.83715,-0.90418 3.26829,-2.49657 4.00258,-4.46043c0.69109,-1.84579 0.65366,-4.01122 -0.10078,-5.84837c-1.1547,-2.81044 -3.72038,-4.72247 -6.73527,-5.02482c-2.39867,-0.239 -4.79158,0.62198 -6.51355,2.34396zM13.16856,21.63877c-0.01152,0 -0.56727,0.54999 -1.24109,1.22381l-1.22381,1.22381l1.22381,1.22381c0.67382,0.67382 1.23245,1.22381 1.24397,1.22381c0.03168,0 2.44186,-2.43034 2.4361,-2.45338c-0.00576,-0.0144 -0.55287,-0.57015 -1.21517,-1.23245c-0.66518,-0.66518 -1.21517,-1.20941 -1.22381,-1.20941zM34.81704,21.63877c-0.02304,0 -2.42746,2.40731 -2.4361,2.43898c-0.01152,0.0288 2.39867,2.45626 2.43322,2.45626c0.01152,0 0.57015,-0.54999 1.24397,-1.22381l1.22381,-1.22381l-1.22381,-1.22381c-0.67382,-0.67382 -1.23245,-1.22381 -1.24109,-1.22381zM18.03213,29.96067h-3.48426v3.48426h3.48426zM33.35135,30.04706h-3.48426v3.48426h3.48426zM23.90066,32.3795c-0.02304,0.00288 -2.44186,2.44474 -2.44186,2.46778c0,0.01152 0.54999,0.57303 1.22381,1.24685l1.22381,1.22381l1.22381,-1.22381c0.67382,-0.67382 1.22381,-1.23533 1.22381,-1.24685c0,-0.01152 -0.54999,-0.57303 -1.22093,-1.24397c-0.67094,-0.67382 -1.22669,-1.22381 -1.23245,-1.22381zM26.74565,17.66498c0.46649,0.20445 0.64502,0.30235 1.09999,0.60183c0.3945,0.26204 0.63638,0.45497 0.99345,0.80627c2.79892,2.72694 2.77589,7.26223 -0.05183,9.96325c-0.97329,0.92722 -2.10783,1.51752 -3.43819,1.78532c-0.69397,0.1411 -1.2958,0.17853 -1.96098,0.11518c-2.78741,-0.2534 -5.16016,-2.15103 -6.00099,-4.80021c-0.93297,-2.95154 0.19581,-6.17952 2.75285,-7.86982c0.45497,-0.29947 0.6335,-0.39738 1.09999,-0.60183c0.6191,-0.27356 1.4225,-0.48089 2.10495,-0.54424c1.13454,-0.10654 2.36987,0.09215 3.40075,0.54424zM19.22714,21.22123l-0.33691,-0.00864l-0.33979,-0.00864v4.35388l0.33979,-0.00864l0.33691,-0.00864zM20.20043,22.50839l-0.72853,-0.00864v0.75156h0.6335c0.64214,0 0.74868,0.0144 0.79764,0.1123c0.01152,0.02592 0.02592,0.52984 0.03168,1.11727l0.00864,1.07407h0.6623l-0.00864,-1.17486l-0.00864,-1.17198l-0.07775,-0.16413c-0.08927,-0.19005 -0.25916,-0.3657 -0.44921,-0.45785c-0.12958,-0.06623 -0.16701,-0.06911 -0.86099,-0.07775zM23.9784,22.51703l-0.76308,-0.00576c-0.63638,-0.00576 -0.7746,0 -0.84083,0.03455c-0.16701,0.09215 -0.16701,0.08351 -0.16701,1.61255v1.39658h0.6623v-2.30364h0.46073c0.5068,0 0.58455,0.02016 0.6335,0.15262c0.01728,0.05471 0.0288,0.47225 0.0288,1.12015v1.03376l0.33979,-0.00864l0.33691,-0.00864v-2.28924h0.30811c0.31387,0 0.43481,0.0288 0.47513,0.1123c0.01152,0.02592 0.02592,0.52984 0.03168,1.11727l0.00864,1.07407h0.6623l-0.00864,-1.17486c-0.00864,-1.16334 -0.00864,-1.17198 -0.07775,-1.32459c-0.09215,-0.20445 -0.34843,-0.43769 -0.54999,-0.50392c-0.11806,-0.03743 -0.25916,-0.04895 -0.67957,-0.04895h-0.52984v0.19581l-0.16413,-0.08927zM27.41947,22.50263h-0.6623v2.82196l0.0979,0.10942l0.10078,0.10654l0.24476,-0.00576c0.30811,-0.00576 0.57015,-0.06911 0.87826,-0.21309c0.63926,-0.29659 1.14894,-0.86962 1.56936,-1.75653c0.13822,-0.29083 0.39162,-0.96465 0.39162,-1.03664c0,-0.0144 -0.15262,-0.02592 -0.35418,-0.02592h-0.35131l-0.09503,0.27932c-0.32539,0.96177 -0.95889,1.76229 -1.53768,1.9437c-0.31387,0.09503 -0.2822,0.21309 -0.2822,-1.08559z" fill="#ffffff" stroke-width="0"></path><path d="M2,24c0,-12.15026 9.84974,-22 22,-22c12.15026,0 22,9.84974 22,22c0,12.15026 -9.84974,22 -22,22c-12.15026,0 -22,-9.84974 -22,-22z" id="base 1 1 1" fill="none" stroke-width="1"></path><g fill="#337ab7" stroke-width="1" font-family="Roboto, sans-serif" font-weight="400" font-size="14" text-anchor="start"><g></g></g><rect x="2" y="2" width="44" height="22" fill="none" stroke-width="1"></rect><path d="M2,24v-22h44v22z" fill="none" stroke-width="1"></path><path d="M2,24v-22h44v22z" fill="none" stroke-width="1"></path><path d="M2,24v-22h44v22z" fill="none" stroke-width="1"></path><path d="M2,24v-22h44v22z" fill="none" stroke-width="1"></path><path d="M24,2c12.15026,0 22,9.84974 22,22h-44c0,-12.15026 9.84974,-22 22,-22z" id="base 1 1 1" fill-opacity="0.1" fill="#000000" stroke-width="1"></path></g></svg>