<?xml version="1.0" standalone="no"?>
<!DOCTYPE svg PUBLIC "-//W3C//DTD SVG 20010904//EN"
 "http://www.w3.org/TR/2001/REC-SVG-20010904/DTD/svg10.dtd">
<svg version="1.0" xmlns="http://www.w3.org/2000/svg"
 width="700.000000pt" height="700.000000pt" viewBox="0 0 700.000000 700.000000"
 preserveAspectRatio="xMidYMid meet">
<metadata>
Created by potrace 1.11, written by Peter Selinger 2001-2013
</metadata>
<g transform="translate(0.000000,700.000000) scale(0.100000,-0.100000)"
fill="#000000" stroke="none">
<path d="M2985 6482 l-510 -509 -722 1 c-476 1 -723 -2 -724 -9 -1 -5 -2 -333
-3 -727 l-1 -718 -510 -510 -510 -510 511 -512 511 -513 -1 -722 c-1 -477 2
-724 9 -726 5 -2 333 -3 727 -2 l718 0 507 -507 c279 -280 510 -508 513 -508
2 0 234 229 515 508 l510 509 723 -1 c477 -1 722 2 723 9 1 5 2 333 3 727 l1
718 510 510 c280 280 507 511 505 514 -3 3 -232 233 -510 511 l-505 506 -1
717 c-1 394 -2 722 -3 727 -1 7 -250 10 -726 10 l-725 0 -507 507 c-280 280
-510 508 -513 508 -3 0 -234 -229 -515 -508z m787 -195 c120 -119 218 -221
218 -225 0 -4 -111 -117 -246 -252 l-246 -245 -244 250 -244 250 78 80 c43 44
152 155 242 248 l164 167 29 -27 c17 -16 128 -126 249 -246z m1908 -927 l0
-350 -349 0 c-270 0 -350 3 -353 13 -3 10 -2 617 1 670 1 16 25 17 351 17
l350 0 0 -350z m-3664 -18 l0 -352 -352 0 -352 0 0 348 c1 191 4 349 8 352 5
3 163 5 352 5 l343 -1 1 -352z m1741 174 c107 -18 167 -30 238 -47 571 -142
1056 -535 1322 -1070 51 -103 135 -336 148 -408 3 -19 8 -37 10 -41 6 -10 34
-178 40 -245 3 -33 6 -123 6 -200 0 -217 -11 -316 -60 -507 -183 -721 -749
-1286 -1471 -1469 -47 -11 -98 -23 -115 -25 -16 -3 -41 -7 -53 -10 -71 -15
-127 -18 -322 -19 -200 0 -250 3 -370 25 -619 112 -1147 502 -1438 1060 -115
221 -198 490 -220 715 -9 94 -8 362 1 458 18 168 84 422 148 564 35 80 100
206 120 235 11 14 19 29 19 32 0 10 121 180 169 236 203 241 457 434 731 554
179 79 390 138 570 161 101 12 456 13 527 1z m-2580 -2263 l-247 -248 -250
250 -249 249 247 248 247 248 250 -250 250 -250 -248 -247z m5146 502 l247
-245 -245 -245 c-135 -135 -250 -245 -255 -245 -9 0 -355 344 -446 443 l-44
48 242 245 c133 134 245 244 248 244 4 0 118 -110 253 -245z m-4307 -2080 c0
-187 -1 -345 -3 -351 -3 -8 -102 -11 -352 -11 l-349 1 0 345 c0 190 2 348 4
351 1 4 159 6 351 5 l348 0 1 -340z m3670 -12 l1 -352 -351 2 -351 2 -1 351 0
350 350 0 351 -1 1 -352z m-1939 -475 c133 -133 243 -246 243 -250 0 -4 -110
-118 -245 -252 l-245 -246 -143 144 c-78 79 -188 191 -245 249 l-103 105 242
246 c133 135 244 246 247 246 3 0 115 -109 249 -242z"/>
<path d="M3275 5284 c-517 -62 -1000 -364 -1291 -809 -214 -327 -316 -741
-281 -1135 19 -206 80 -430 167 -613 139 -292 349 -535 618 -715 253 -169 540
-274 817 -299 135 -12 375 -6 465 12 199 39 279 62 415 117 316 130 610 373
802 663 138 209 241 467 279 695 4 25 9 56 11 70 11 70 9 385 -3 475 -46 328
-214 701 -418 922 -145 158 -245 246 -382 336 -223 148 -533 260 -779 282
-126 12 -318 11 -420 -1z m511 -1380 l-2 -334 -25 -37 c-13 -21 -39 -48 -58
-60 -31 -21 -42 -22 -185 -20 -174 4 -188 9 -227 87 -20 38 -23 62 -25 162 -2
161 9 208 59 258 21 22 49 40 61 41 249 7 236 8 237 -15 2 -25 2 -75 0 -96 -1
-12 -20 -15 -107 -16 -140 -1 -139 0 -139 -149 0 -80 4 -118 13 -127 17 -17
246 -20 269 -3 13 10 16 54 19 321 2 170 3 312 4 316 0 3 24 6 54 6 l54 -1 -2
-333z m226 276 l3 -60 -55 3 -55 3 0 57 -1 57 52 0 52 0 4 -60z m729 47 c4
-44 3 -761 -1 -767 -3 -5 -28 -8 -55 -7 l-50 2 -1 385 c0 212 1 388 2 391 7
13 104 9 105 -4z m-2711 -46 c13 -1 15 -25 15 -149 l0 -149 201 0 201 0 -1
149 c0 81 1 148 4 149 7 1 83 1 96 0 7 -1 10 -116 10 -363 l-1 -363 -52 -3
c-46 -3 -53 -1 -54 15 0 10 0 78 -1 151 0 128 0 132 -21 132 -45 1 -274 1
-327 1 l-55 -1 0 -147 0 -148 -57 -3 -58 -3 -1 228 c-1 356 0 493 5 501 3 6
39 7 96 3z m2315 0 c6 -1 10 -35 9 -86 0 -51 4 -86 10 -88 6 -2 50 -3 98 -2
l86 2 4 -54 c1 -30 0 -60 -4 -66 -4 -7 -41 -12 -95 -13 -48 -1 -91 -2 -94 -3
-3 0 -5 -94 -5 -208 l1 -208 -57 -3 -58 -3 -1 38 c0 21 -1 115 -1 210 0 121
-3 173 -11 176 -7 2 -38 3 -69 3 -32 -1 -58 1 -59 4 -8 38 -5 120 4 121 7 1
39 2 72 3 l60 1 0 85 c0 57 4 87 12 90 10 4 63 5 98 1z m-1271 -196 c76 -36
95 -105 89 -312 -3 -101 -13 -138 -48 -175 -35 -38 -60 -43 -210 -43 -152 0
-181 9 -222 67 -54 79 -29 227 47 271 21 13 59 18 143 21 64 2 120 0 127 -4 7
-4 10 -28 8 -61 l-3 -54 -95 -2 c-120 -4 -134 -7 -147 -36 -8 -18 -8 -31 3
-53 l14 -30 125 1 c84 1 130 6 138 14 8 8 13 55 15 134 5 160 10 155 -163 159
l-130 3 -3 48 c-2 27 -1 54 1 61 8 21 264 13 311 -9z m937 -18 c0 -61 0 -414
0 -469 l-1 -48 -53 0 -53 0 0 273 c-1 149 3 274 7 277 4 3 28 6 53 7 l46 1 1
-41z m1053 18 c19 -9 46 -34 60 -55 25 -38 26 -42 27 -247 1 -114 1 -214 0
-221 -1 -9 -16 -12 -53 -10 l-53 3 0 192 c0 238 7 226 -137 229 -57 1 -106 2
-110 3 -9 1 -11 115 -2 123 12 13 235 -1 268 -17z m-1947 -837 c38 -16 48 -16
48 2 0 13 19 15 117 14 64 -1 132 -7 151 -13 55 -19 105 -75 113 -130 10 -65
12 -424 3 -436 -7 -10 -116 -11 -125 -2 -2 2 -5 97 -7 211 -3 243 2 232 -113
235 l-75 2 1 -203 c1 -112 1 -214 1 -228 -1 -24 -4 -25 -58 -23 -32 1 -62 2
-68 2 -6 1 -10 77 -11 207 -1 179 -3 207 -18 222 -14 14 -37 17 -124 17 l-107
0 0 -223 c0 -141 -4 -222 -10 -223 -34 -3 -115 0 -122 4 -4 3 -8 125 -7 271 1
342 -18 314 213 310 102 -2 180 -9 198 -16z m706 13 c4 0 7 -100 7 -221 0
-249 -7 -233 87 -199 104 39 255 216 308 364 10 28 20 52 22 54 6 8 122 8 134
0 9 -5 4 -27 -15 -75 -107 -268 -288 -451 -490 -494 -72 -16 -132 -15 -158 2
-23 15 -23 17 -26 287 -2 149 -1 275 2 279 4 6 93 8 129 3z"/>
</g>
</svg>
