<?xml version="1.0" standalone="no"?>
<!DOCTYPE svg PUBLIC "-//W3C//DTD SVG 20010904//EN"
 "http://www.w3.org/TR/2001/REC-SVG-20010904/DTD/svg10.dtd">
<svg version="1.0" xmlns="http://www.w3.org/2000/svg"
 width="1024.000000pt" height="1024.000000pt" viewBox="0 0 1024.000000 1024.000000"
 preserveAspectRatio="xMidYMid meet">
<metadata>
Created by potrace 1.15, written by Peter Selinger 2001-2017
</metadata>
<g transform="translate(0.000000,1024.000000) scale(0.100000,-0.100000)"
fill="#337ab7" stroke="none">
<path d="M4370 9485 l-745 -745 -1062 0 -1063 0 0 -1063 0 -1063 -382 -381
c-211 -209 -547 -546 -748 -747 l-364 -367 747 -747 747 -747 0 -1063 0 -1062
1062 0 1063 0 747 -747 748 -748 748 748 747 747 1063 0 1062 0 0 1062 0 1063
747 747 748 748 -357 357 c-196 197 -533 533 -747 748 l-391 389 0 1063 0
1063 -1062 0 -1063 0 -745 745 c-410 410 -747 745 -750 745 -3 0 -341 -335
-750 -745z m1295 -533 l180 -182 -363 -363 -363 -363 -357 358 c-196 198 -357
364 -357 370 0 5 160 171 355 368 l355 357 185 -181 c102 -100 266 -263 365
-364z m2615 -1142 l0 -510 -515 0 -515 0 0 510 0 510 515 0 515 0 0 -510z
m-5300 -25 l0 -515 -515 0 -515 0 0 515 0 515 515 0 515 0 0 -515z m2540 181
c627 -100 1152 -357 1584 -776 488 -474 782 -1069 861 -1745 29 -249 16 -614
-30 -860 -233 -1230 -1241 -2171 -2485 -2321 -150 -18 -530 -18 -680 0 -522
63 -1013 266 -1440 596 -122 95 -385 358 -480 480 -333 431 -533 918 -596
1450 -20 169 -20 499 1 665 66 539 262 1013 595 1445 91 118 366 394 480 482
158 122 314 219 495 308 322 159 596 241 945 285 157 19 604 14 750 -9z
m-3630 -2539 l295 -297 -360 -360 c-198 -198 -362 -360 -365 -360 -4 0 -169
163 -368 362 l-362 363 362 362 362 362 71 -67 c38 -37 203 -201 365 -365z
m7258 70 l362 -362 -365 -365 -365 -365 -360 360 c-198 198 -359 364 -357 370
4 10 709 722 717 724 3 1 168 -162 368 -362z m-6178 -3042 l0 -515 -515 0
-515 0 0 515 0 515 515 0 515 0 0 -515z m5330 0 l0 -515 -515 0 -515 0 0 515
0 515 515 0 515 0 0 -515z m-2635 -803 l180 -182 -363 -363 -363 -363 -357
358 c-196 198 -357 364 -357 370 0 5 160 171 355 368 l355 357 185 -181 c102
-100 266 -263 365 -364z"/>
<path d="M4860 7741 c-462 -44 -948 -232 -1320 -512 -676 -510 -1060 -1273
-1060 -2109 0 -845 402 -1636 1081 -2127 484 -349 1045 -521 1639 -500 680 24
1303 296 1779 777 200 203 358 425 486 685 135 273 203 492 252 805 22 141 25
545 5 685 -67 470 -233 878 -510 1255 -109 148 -367 406 -522 521 -358 268
-759 435 -1210 504 -120 19 -488 28 -620 16z m668 -2063 c-3 -476 -2 -465 -66
-526 -61 -56 -88 -62 -330 -62 -206 0 -225 2 -268 21 -25 12 -56 36 -69 53
-50 65 -55 93 -55 285 0 176 0 179 28 232 20 39 41 62 77 84 l48 30 199 3 198
4 0 -81 0 -81 -147 0 c-180 0 -217 -8 -232 -52 -14 -40 -14 -246 0 -286 15
-44 49 -52 225 -52 147 0 200 8 216 33 4 7 8 195 8 420 l0 407 85 0 86 0 -3
-432z m342 357 l0 -75 -80 0 -80 0 0 75 0 75 80 0 80 0 0 -75z m1120 -435 l0
-510 -85 0 -85 0 0 510 0 510 85 0 85 0 0 -510z m-4110 245 l0 -195 305 0 305
0 0 195 0 195 85 0 85 0 0 -475 0 -475 -85 0 -85 0 0 195 0 195 -305 0 -305 0
0 -195 0 -195 -85 0 -85 0 0 475 0 475 85 0 85 0 0 -195z m3512 78 l3 -118
153 -3 152 -3 0 -79 0 -79 -152 -3 -153 -3 -3 -272 -2 -273 -85 0 -85 0 0 275
0 275 -110 0 -110 0 0 80 0 80 110 0 110 0 0 120 0 120 85 0 84 0 3 -117z
m-1958 -135 c25 -8 59 -31 87 -59 62 -61 72 -109 67 -317 -4 -176 -14 -210
-82 -270 -56 -49 -88 -54 -332 -50 l-221 3 -40 27 c-59 39 -92 86 -103 150
-20 107 21 204 107 255 47 28 50 28 241 31 l192 4 0 -81 0 -81 -170 0 c-156 0
-172 -2 -190 -20 -48 -48 -28 -115 40 -133 19 -5 106 -7 193 -5 l159 3 24 28
c23 27 24 34 24 171 0 130 -2 146 -21 170 l-20 26 -210 0 -209 0 0 80 0 80
211 0 c138 0 226 -4 253 -12z m1436 -343 l0 -355 -80 0 -80 0 0 355 0 355 80
0 80 0 0 -355z m1615 331 c28 -13 63 -37 78 -55 49 -59 57 -110 57 -383 l0
-248 -85 0 -85 0 0 249 c0 230 -1 251 -19 272 -19 23 -24 24 -190 27 l-171 4
0 79 0 79 183 0 c170 0 185 -2 232 -24z m-2906 -1138 c29 -16 55 -28 57 -28 2
0 4 14 4 31 l0 31 183 -4 c179 -3 183 -4 240 -33 66 -33 100 -68 131 -135 20
-42 21 -65 24 -377 l3 -333 -105 0 -106 0 0 310 0 311 -25 24 c-23 24 -30 25
-137 25 l-113 0 3 -335 3 -335 -105 0 -106 0 0 310 0 311 -25 24 c-24 24 -28
25 -185 25 l-160 0 0 -335 0 -335 -105 0 -105 0 0 403 c1 314 4 407 14 426 27
49 43 51 311 48 l251 -2 53 -27z m1051 -298 l0 -330 40 0 c53 0 155 47 230
106 127 99 260 298 330 492 l23 62 109 0 c127 0 120 18 56 -145 -158 -400
-423 -660 -736 -721 -86 -16 -185 -18 -213 -4 -47 26 -49 43 -49 470 l0 400
105 0 105 0 0 -330z"/>
</g>
</svg>
