<?xml version="1.0" standalone="no"?>
<!DOCTYPE svg PUBLIC "-//W3C//DTD SVG 20010904//EN"
 "http://www.w3.org/TR/2001/REC-SVG-20010904/DTD/svg10.dtd">
<svg version="1.0" xmlns="http://www.w3.org/2000/svg"
 width="1024.000000pt" height="1024.000000pt" viewBox="0 0 1024.000000 1024.000000"
 preserveAspectRatio="xMidYMid meet">
<metadata>
Created by potrace 1.15, written by Peter Selinger 2001-2017
</metadata>
<g transform="translate(0.000000,1024.000000) scale(0.100000,-0.100000)"
fill="#337ab7" stroke="none">
<path d="M4370 9485 l-745 -745 -1062 0 -1063 0 0 -1063 0 -1063 -382 -381
c-211 -209 -547 -546 -748 -747 l-364 -367 747 -747 747 -747 0 -1063 0 -1062
1062 0 1063 0 747 -747 748 -748 748 748 747 747 1063 0 1062 0 0 1062 0 1063
747 747 748 748 -357 357 c-196 197 -533 533 -747 748 l-391 389 0 1063 0
1063 -1062 0 -1063 0 -745 745 c-410 410 -747 745 -750 745 -3 0 -341 -335
-750 -745z m1295 -433 l180 -182 -363 -363 -363 -363 -357 358 c-196 198 -357
364 -357 370 0 5 160 171 355 368 l355 357 185 -181 c102 -100 266 -263 365
-364z m2645 -1212 l0 -510 -515 0 -515 0 0 510 0 510 515 0 515 0 0 -510z
m-5360 -25 l0 -515 -515 0 -515 0 0 515 0 515 515 0 515 0 0 -515z m2495 260
c964 -111 1797 -667 2269 -1513 188 -337 317 -752 356 -1146 14 -140 14 -452
0 -592 -64 -646 -339 -1256 -780 -1729 -485 -521 -1124 -846 -1830 -930 -147
-18 -525 -20 -668 -4 -1364 148 -2441 1195 -2632 2557 -33 240 -31 590 6 841
136 928 713 1746 1546 2190 245 131 588 249 878 301 223 41 620 52 855 25z
m3803 -2578 l362 -362 -365 -365 -365 -365 -360 360 c-198 198 -359 364 -357
370 4 10 709 722 717 724 3 1 168 -162 368 -362z m-7458 -80 l295 -297 -360
-360 c-198 -198 -362 -360 -365 -360 -4 0 -169 163 -368 362 l-362 363 362
362 362 362 71 -67 c38 -37 203 -201 365 -365z m1160 -2982 l0 -515 -515 0
-515 0 0 515 0 515 515 0 515 0 0 -515z m5370 0 l0 -515 -515 0 -515 0 0 515
0 515 515 0 515 0 0 -515z m-2655 -883 l180 -182 -363 -363 -363 -363 -357
358 c-196 198 -357 364 -357 370 0 5 160 171 355 368 l355 357 185 -181 c102
-100 266 -263 365 -364z"/>
<path d="M4860 7741 c-462 -44 -948 -232 -1320 -512 -676 -510 -1060 -1273
-1060 -2109 0 -845 402 -1636 1081 -2127 484 -349 1045 -521 1639 -500 680 24
1303 296 1779 777 200 203 358 425 486 685 135 273 203 492 252 805 22 141 25
545 5 685 -67 470 -233 878 -510 1255 -109 148 -367 406 -522 521 -358 268
-759 435 -1210 504 -120 19 -488 28 -620 16z m678 -2024 l-3 -483 -30 -60
c-25 -48 -41 -65 -85 -92 l-55 -33 -221 3 -221 3 -40 27 c-30 20 -50 45 -74
94 -33 66 -33 70 -37 223 -7 271 20 362 122 426 l49 30 179 3 178 4 0 -96 0
-96 -150 0 c-92 0 -159 -4 -175 -12 -37 -17 -47 -70 -43 -234 4 -196 -10 -184
223 -184 172 0 183 1 201 21 18 20 19 45 22 480 l3 459 80 0 80 0 -3 -483z
m332 398 l0 -85 -80 0 -80 0 0 85 0 85 80 0 80 0 0 -85z m1070 -490 l0 -575
-80 0 -80 0 0 575 0 575 80 0 80 0 0 -575z m-3950 275 l0 -220 295 0 295 0 0
220 0 220 80 0 80 0 0 -535 0 -535 -80 0 -80 0 0 220 0 220 -295 0 -295 0 0
-220 0 -220 -85 0 -85 0 0 535 0 535 85 0 85 0 0 -220z m3380 90 l0 -130 145
0 145 0 0 -95 0 -95 -145 0 -145 0 0 -310 0 -310 -85 0 -85 0 0 310 0 310
-105 0 -105 0 0 95 0 95 105 0 105 0 0 130 0 130 85 0 85 0 0 -130z m-1904
-145 c56 -16 105 -59 137 -119 20 -38 22 -58 25 -248 4 -235 -5 -286 -59 -351
-59 -71 -82 -77 -309 -77 -218 0 -248 6 -304 58 -16 15 -39 50 -52 77 -48 100
-24 263 48 332 63 59 80 63 273 63 l175 0 0 -90 0 -90 -160 0 c-157 0 -161 -1
-185 -25 -31 -30 -33 -82 -4 -119 l20 -26 183 0 c237 0 220 -16 224 215 3 171
3 173 -21 201 l-25 29 -196 3 -196 3 0 90 0 89 188 0 c137 0 202 -4 238 -15z
m1404 -390 l0 -405 -80 0 -80 0 0 405 0 405 80 0 80 0 0 -405z m1488 396 c60
-12 115 -54 148 -114 l29 -52 3 -317 3 -318 -80 0 -81 0 0 285 0 286 -25 24
c-24 24 -28 25 -185 25 l-160 0 0 95 0 95 153 0 c83 -1 171 -5 195 -9z m-2780
-1253 l52 -27 0 29 0 30 170 0 c201 0 255 -14 326 -85 70 -70 74 -97 74 -462
l0 -313 -100 0 -100 0 0 295 c0 310 -4 343 -45 359 -9 3 -65 6 -123 6 l-107 0
3 -330 3 -330 -100 0 -101 0 0 289 c0 175 -4 300 -10 318 -16 46 -45 53 -210
53 l-150 0 0 -330 0 -330 -100 0 -100 0 0 401 0 401 30 29 29 30 254 -3 c253
-3 253 -3 305 -30z m1022 -293 l0 -325 24 0 c50 0 156 41 213 84 148 110 310
342 364 524 l12 42 109 0 c59 0 108 -2 108 -4 0 -2 -15 -44 -34 -93 -83 -218
-189 -389 -320 -518 -162 -160 -356 -245 -558 -245 -46 0 -62 5 -85 24 l-28
24 -3 406 -3 406 101 0 100 0 0 -325z"/>
</g>
</svg>
