<?xml version="1.0" encoding="UTF-8"?>
<!DOCTYPE svg  PUBLIC '-//W3C//DTD SVG 20010904//EN'  'http://www.w3.org/TR/2001/REC-SVG-20010904/DTD/svg10.dtd'>
<svg width="1080pt" height="1080pt" version="1.0" viewBox="0 0 1080.000000 1080.000000" xmlns="http://www.w3.org/2000/svg">
<metadata>Created by potrace 1.15, written by Peter Selinger 2001-2017</metadata>
<g transform="translate(0 1080) scale(.1 -.1)" fill="#337ab7">
<path d="m4600 10005l-795-795h-1112-1113v-1113-1112l-790-790c-434-434-790-797-790-805s356-370 790-805l790-790v-1112-1113h1113 1112l785-785c517-517 792-785 805-785s289 269 805 785l785 785h1117 1118v1118 1117l792 793 793 792-793 793-792 792v1118 1117h-1117-1118l-795 795-795 795-795-795zm1198-438l422-422-425-425-425-425-425 425-425 425 422 422c233 233 425 423 428 423s195-190 428-423zm2862-1507v-600h-600-600v600 600h600 600v-600zm-5350-40v-600h-600-600v600 600h600 600v-600zm2391 165c511-54 977-240 1407-562 140-104 398-358 502-493 310-404 494-831 571-1331 33-209 33-609 0-819-78-504-269-944-583-1344-115-145-350-374-500-487-381-286-813-467-1291-541-206-32-608-32-814 0-623 97-1175 379-1604 819-689 708-955 1707-709 2668 124 489 369 915 735 1280 398 399 876 658 1420 770 261 54 591 69 866 40zm-3632-3241l-424-424-425 425-425 425 425 425 424 424 425-425 425-425-425-425zm7511 1l-425-425-424 425-425 425 425 425 424 424 425-424 425-425-425-425zm-6250-2215v-600h-600-600v600 600h600 600v-600zm5310-30v-600h-600-600v600 600h600 600v-600zm-2842-643l422-422-425-425-425-425-425 425-425 425 422 422c233 233 425 423 428 423s195-190 428-423z"/>
<path d="m5315 7803c-587-18-1163-262-1593-677-273-264-491-610-611-971-86-261-121-482-121-765s35-504 121-765c221-665 725-1203 1379-1471 188-77 431-139 643-164 133-16 429-13 575 5 149 19 387 78 528 130 854 316 1463 1095 1564 2e3 13 119 13 411-1 533-61 558-326 1091-735 1482-129 123-255 218-421 318-401 243-849 359-1328 345zm-1605-2218v-675h-115-115v675 675h115 115v-675zm613 255c82-26 154-88 188-162 23-52 24-59 27-410l4-358h-116-116v334 335l-24 28-24 28-226 3-226 4v109 109h224c196 0 232-3 289-20zm1048 4c30-9 69-25 87-36l32-20v36 36h174c223 0 283-15 361-93 87-87 88-95 93-504l4-353h-116-116v334 335l-24 28c-24 27-25 28-146 28h-122l2-362 1-363h-110-110l-3 335-3 335-28 27-27 28-170 4-170 3v-366-366h-115-115v425c0 474 1 483 62 510 50 22 484 21 559-1zm1189-344v-360h23c13 0 47 7 75 15 205 61 424 312 539 615l32 85 116 3 117 3-6-28c-14-57-80-211-133-313-157-301-357-485-626-575-105-35-258-45-306-21-60 32-61 40-61 511v425h115 115v-360z"/>
</g>
</svg>
