<svg xmlns="http://www.w3.org/2000/svg" viewBox="0 0 328.65 112.62"><defs><style>.a{fill:#231f20;}</style></defs><title>title_ar</title><path class="a" d="M73.87,76.21c.23.11.31.25.27.43-1.55,7-7.19,22,5.16,24.87a18.68,18.68,0,0,0,10.55-1C99.26,97.05,119,81.67,114.4,77.89c-26,7-13.9-22.93-3.76-16.5,3.64,2.31,6.93,8.74,6.94,8.75,4.11-.15,13.09-9.4,11.9-4.17-1.33,5.82,4.83,10.4,12.16,5.73,1.49-1,2.86-1.07,2.08-11.89-4.11-57.12-2.56-48-4.12-52.12a26.41,26.41,0,0,1,2.51-7c.6-.13,7,15.2,6.39,17.59-1.33,0-2.18-1.93-3.18-2.49-2.74,1.35,12.61,67.77-11,65.58-6.77-.63-7.75-4.18-8.06-9a93.94,93.94,0,0,1-8.21,4.75c-.88,14.1-25,35.12-38.71,32.23-15.47-3.25-8.63-30-5.51-33.18C74.1,76.32,73.48,76.61,73.87,76.21ZM109,71.32a9.44,9.44,0,0,0,2-.32C105.61,62.54,96.38,72.33,109,71.32Z"/><path class="a" d="M26.44,103.61c3.74-2.37,60.23-24.51,62.38-34.12-3.06-6.22-16.95.31-17.11-9.13a12.89,12.89,0,0,1,5.87-11.29c9.65-6,19.36,17.73,9.09,29.44C80.87,85.12,61,96.38,56.17,97.42c-11,2.34-25.93,6.74-29.73,6.19C27.53,102.92,27.35,103.74,26.44,103.61ZM76.19,58.19c1.66,1.2,5.71,1,7.69.51C79.94,52.08,73.36,56.14,76.19,58.19Z"/><path class="a" d="M58.11,53.31c1-.09,6.49,6.92,3.87,17.67C59.05,83,43,84.13,37.39,74.11c-.66-1.17-1.36-2.32-2.05-3.47-4.14-6.84-11.13,1.25-13.59,7.13-.91,2.18-1.8,4.36-2.71,6.54C9,108.37-3.81,83.06,2.48,62c.1-.33.22-.7.62-.8.48.2.25,2,.19,2.47C.12,90.66,11.76,91.45,15.8,83.2c4.3-8.78,6.85-17.66,14-21.91,5.09-3,6.9,1.22,9.24,5,7.24,11.84,22.83,5.09,21,.35-2.33-6-5.15-5.7-2.51-12.36a2,2,0,0,1,.61-1C58.48,53.28,57.78,53.55,58.11,53.31Z"/><path class="a" d="M270.11,52c.44.23,7.25,7.43,7.64,8.28-1.09.45-2-.2-3-.25,0,0,8.48,16.43,2,24.42-6.88,8.47-28,20.1-32.9,21.17-10.74,2.35-28.26,7-29.55,6.35-.08-.33.21-.42.39-.51,9.53-5,43.51-16.9,59.16-30.38,4.67-4,2.27-2.66-2.53-15.7-3.07-8.33-3-4.83-1.87-12.09a1.78,1.78,0,0,1,.65-1.28C270.58,52.27,269.65,52.35,270.11,52Z"/><path class="a" d="M159.69.66c.77.23,7.54,17.4,6,17.68-.84-.3-1.53-1.16-2.92-2.57-1.85.13,7.49,63.12-1,69.44a.38.38,0,0,1-.29-.42c.8-41.25-6.93-82.89-1.82-84.12C160.1.78,159.46.71,159.69.66Z"/><path class="a" d="M322.18,1.58c.94.28,7.41,17.42,6,17.68-.84-.3-1.53-1.16-2.92-2.57-.52,0,3.2,59.56,3.24,60,.82,9.11-2.55,19.74-4,20.81,0,0,.76-7.6-3.91-84.06C320.23,6.91,317.9,11,321.74,2a.65.65,0,0,1,.44-.4C322.59,1.7,322,1.63,322.18,1.58Z"/><path class="a" d="M131.31,2.08a3.88,3.88,0,0,1-2.71,3C114,9.38,16.25,39,16.25,39c.9-3.31,1.77-3.32,5.22-4.42,2.85-.91,106.76-31.79,109.83-32.5C131,3.16,130.63,2.24,131.31,2.08Z"/><path class="a" d="M11.25,25.91c.87-1.32,17.79-10.13,17.87-12-.19-.28-.54-.3-.83-.38-2.68-.74-3-3.35-1.86-5.91.66-1.43.25-1.26.13-2.84.5-5.94,11.63,2,10.89,6-.9,4.82-2.66,3.83-6.44,3.45-7.82,8.87-18.76,12-19.76,11.73C11.56,25.44,11.89,26.07,11.25,25.91Zm18-18.72c-1,.4-4.61,2.9,1.34,3.74C31.12,9.4,30.44,6.7,29.22,7.19Zm6.56,4.39a4.79,4.79,0,0,0-3.38-3.66l-.47,3.25C32.58,11.33,35.16,11.82,35.78,11.58Z"/><path class="a" d="M31.08,54.49c-.18-.08-5.62-3.74-6-4A50.62,50.62,0,0,1,22.56,55c-.45-.16-6.13-4.08-6.33-4.26-.28-.76,2.32-5.41,2.82-6,.85,0,5.48,3.42,6.17,3.92.31-.32,2-3.74,2.22-4.14.94-.5,5.64,3.19,6.47,3.86.37,1.39-2,5.59-2.83,6.13C30,54,31.22,54.39,31.08,54.49Z"/><path class="a" d="M41.77,92.42c-.24-.1-5.67-3.79-5.89-3.93-.66.44-1.91,4.27-2.74,4.4-.24-.06-5.75-3.79-6.19-4.26-.1-.27,2.06-5.26,2.83-5.95.85-.07,5.39,3.34,6.08,3.84.39-.05,2.13-3.71,2.32-4.08,1-.5,5.62,3.21,6.45,3.89.42,1.27-2.12,5.92-2.88,6.08C40.72,92,42.05,92.36,41.77,92.42Z"/><path class="a" d="M191.77,47.49a27,27,0,0,1,2-4.71l60.49-19.53c.87.57.49.87-.45,2.56a4.19,4.19,0,0,1-2.52,2L195.75,46.29c-1.13.42-2.74,1.38-4,1.2C192.18,45.79,192.6,47.61,191.77,47.49Z"/><path class="a" d="M76.11,34.14a22.84,22.84,0,0,1,1.66-4c4.69-1.53,52.06-17,56.7-18.42,1,.66-.68,3.23-2.47,3.81C131.81,15.64,76.28,34.17,76.11,34.14Z"/><path class="a" d="M47.87,42.91l-.72-.63c-.48-1.63,1.07-3.46,2-3.41.6.61.37,3.58.24,4.32-1,6,5.52,5,4.53-.17-.27-1.41-1.53-4.16,0-5.52,1-.07,1.6,5.67,1.7,6.77.19,2.2,3,3.21,3.7,1.35-.25-1.3-3.53-5.37-1.31-8.4a.4.4,0,0,1,.41-.2c0,.06.12.12.13.19C59,41.43,62.23,43.5,60,48c-1.53,3-4.23,1.7-5-.44-.07-.19-.14-.38-.41-.44C52.91,51.5,47.87,53.64,47.87,42.91Z"/><path class="a" d="M124,36c-1,.84-.95,4.11-4.53,3.51-2.47-.41-2.26-5.44-2.26-7.45-.18-.47-.62-.53-.84-.93-.36-1.28.8-2.85,1.92-3.35.8.45.29,4.49.4,6,.35,4.74,5.43,2.2,4.54-1.58-.3-1.3-1.66-5.21.09-5.68,1.1.19,1.41,6.46,1.79,7.46.7,1.83,3.12,2.21,3.53.52-1.41-3-3.32-6.12-1.06-8.56a.59.59,0,0,1,.39.59c.07,1.75,1,3.5,1.65,5.09,1.77,4.29-2.51,11-5.62,4.37C123.6,36.29,124.13,36.35,124,36Z"/><path class="a" d="M54.77,13c.27-.06.33-.24.37-.45,3.94-20.42,9.76-5.8,6.42-5.57-1-.21-2-2.93-3.16-.93-2,3.57-2.07,11.19-4,12-.22-.1-.35-.21-.36-.38a24.82,24.82,0,0,0-3-8.44c-.83-1.3-1.47.55-2.92-.58C47.1,7.87,45.94,7,46.61,6,48.1,3.56,48,3.19,49.16,3.48c3.52.88,5,5.93,5.62,9.47C55,12.9,54.56,11.8,54.77,13Z"/><path class="a" d="M292.9,14.81c-.07,3.11-.55,2.77-10.11,9.16a1.5,1.5,0,0,1-.91.43c-.24-2.1.84-2.73,2.32-4-.16-1-3.26-.71-2.49-3.54a10.92,10.92,0,0,1,3.85-5.08c3.78-2.83,5.17.93,2.9,3.55-.33-.11-.44-.45-.68-.67-1.3-1.2-4.58.88-3.15,2,3.18,2.39,3.91.18,8.28-1.8C292.86,16.37,292.37,15.05,292.9,14.81Z"/><path class="a" d="M269.19,12.24a.42.42,0,0,1-.09-.52c1.13-3,.89-2.77,2.23-3.24.62-.22,19-7,19.6-6.63-.66,3.11,1,1.39-21.74,10.39C269,12,270.24,11.82,269.19,12.24Z"/><path class="a" d="M94.23,57.1a.42.42,0,0,1-.09-.52c1.49-3.93-1.77-1.68,20.5-9.75.4-.14.81-.44,1.33-.13-.63,3,.8,1.47-21.74,10.39C94,56.89,95.28,56.69,94.23,57.1Z"/><path class="a" d="M42.19,112.21a.42.42,0,0,1-.09-.52c1.52-4-1.74-1.69,20.5-9.75.4-.14.81-.44,1.33-.13-.56,2.65.5,1.59-21.74,10.39C42,112,43.23,111.79,42.19,112.21Z"/><path class="a" d="M24.94,97.74c-.5,2.83.85,1.75-24.78,11.67-.25-.14-.15-.3-.1-.44.8-2.19.8-2.82,1.79-3.17,6.57-2.29,22.38-8.28,23.09-8.07C24.83,98.39,24.45,97.59,24.94,97.74Z"/><path class="a" d="M193.1,10.75c-.52,3,1,1.71-24.78,11.67-.37-.21.59-3.22,1.69-3.6,6.57-2.29,22.38-8.28,23.09-8.07C193,11.4,192.6,10.61,193.1,10.75Z"/><path class="a" d="M128.73,56s-4.81-3.34-6.11-4.15a.74.74,0,0,1,0-.73c2.66-5.5,2.52-5.77,3.52-5.16,5.35,3.23,6,3.91,5.55,4.91-.33.81-2.05,5-2.94,5.12C128.64,56,129,56,128.73,56Z"/><path class="a" d="M239.11,86.45a55.66,55.66,0,0,1,2.95-5.67c.93-.13,5.56,3.46,6.27,4.19.35,1.18-2,5.26-2.85,6-.25-.09-4.59-3.18-6-4a.79.79,0,0,1-.4-.57C240,84.71,239.18,86.79,239.11,86.45Z"/><path class="a" d="M173.89,35a55.66,55.66,0,0,1,2.95-5.67c.93-.13,5.56,3.46,6.27,4.19.35,1.19-2,5.27-2.85,6-.25-.09-6.27-4.08-6.38-4.57C174.74,33.25,174,35.32,173.89,35Z"/><path class="a" d="M235.81,6.53a60.11,60.11,0,0,0-2.25,8.08c-.69,4.23,1.37,5.23,2.52,4.24.76-.66,1.85-2.66,1.76-1.89-1.26,10.63-11.05,6.12-2.4-10.24a1.43,1.43,0,0,1,.24-.27l.14.08C235.5,7.53,235.77,6.5,235.81,6.53Z"/><path class="a" d="M291.86,72c-1.65,5.31-2.94,8.82-2.15,11.34.33,1,1.45,1.82,2.41,1a9,9,0,0,0,1.61-2.16c.5.85-.67,3.89-1.51,5-1.18,1.63-4,1.15-4.15-2-.35-6.19,2.72-12.3,3.65-13.3l.14.08C291.55,73,291.82,72,291.86,72Z"/><path class="a" d="M8.08,18.22c-.61,2.86-1.21,5.72-1.83,8.57-6.3,28.73.37,29,2.34,26.54a26,26,0,0,0,3.13-6.15c.16.4.31.59.3.75C9.53,78.52-9.32,64.76,7.33,18.75A3.92,3.92,0,0,1,7.81,18l.27.23C7.47,21.07,8,18.14,8.08,18.22Z"/><path class="a" d="M94.89,72.26c-1.65,5.31-2.94,8.82-2.15,11.34.33,1,1.45,1.82,2.41,1a9,9,0,0,0,1.61-2.16c.08.14.16.21.15.26-1,8-7.34,8-5.47-2.18a25.37,25.37,0,0,1,3.31-8.33l.14.08C94.58,73.26,94.84,72.24,94.89,72.26Z"/><path class="a" d="M78.3.08C75.69,8.46,78,11.56,81.18,6.34c.5.85-.67,3.89-1.51,5-1.94,2.67-7.52-.21-1.75-11.12A1.43,1.43,0,0,1,78.16,0l.14.08C78,1.08,78.25.05,78.3.08Z"/><path class="a" d="M294.25,26.48c-2.61,8.38-.33,11.48,2.88,6.26.5.85-.67,3.89-1.51,5-1.39,1.92-5.21,1.11-4.09-5,.21-1.18,1.79-5.5,2.58-6.35l.14.08C293.94,27.49,294.2,26.46,294.25,26.48Z"/><path class="a" d="M153.26,70.26c-1.65,5.31-2.94,8.82-2.15,11.34.33,1,1.45,1.82,2.41,1,.76-.66,1.85-2.66,1.76-1.89-.91,7.66-5.6,6.58-5.81,2.79a22,22,0,0,1,3.65-13.3l.14.08C152.94,71.26,153.21,70.24,153.26,70.26Z"/><path class="a" d="M101.11,28c-4.42,14.2-.93,14.71,1.87,10.16.08.14.16.21.15.26-1.27,10.67-11,6-2.4-10.24A1.43,1.43,0,0,1,101,28l.14.08C100.8,29,101.06,28,101.11,28Z"/><path class="a" d="M309.91,98.31c-.32-1.13.78-5,3.42-4.8,3.58.29,2.27,9.3-4.63,14.49-.06,0-.15,0-.22,0s9.67-13.81,1.53-9.69c0,0-.06,0-.1,0S309.94,98.33,309.91,98.31Z"/><path class="a" d="M266.87,102.46c-.32-1.13.78-5,3.42-4.8,5.15.42-1.07,13.88-4.85,14.53-.11-.05-.12-.12-.05-.22,2.44-3.49,5-6.4,4.84-8.86A1.42,1.42,0,0,0,268,102c-.15.09-.94.56-1.1.49S266.91,102.47,266.87,102.46Z"/><path class="a" d="M199.73,103.86a4.14,4.14,0,0,1,.72-2.72c1.6-2.55,5.07-.84,3.08,4.11-1.54,3.82-4.27,6.34-4.94,6.46,0,0,8.12-11.29,1.23-7.81,0,0-.05,0-.08,0S199.75,103.87,199.73,103.86Z"/><path class="a" d="M112.69,100.63c-.34-1,.85-4.19,3.42-4s2.18,3.59,1.28,5.45c-1.85,3.83-5.2,6.57-6.13,6.7-.11,0-.12-.1-.05-.19,1.61-1.93,2.58-2.86,3.79-4.61,1.76-2.53,1.57-4.91-2.22-3.31,0,0-.06,0-.1,0S112.72,100.64,112.69,100.63Z"/><path class="a" d="M293.35,49.51c16,17.52,11.89,33.42,10.5,34.37-.42-.12-.94-5.81-1-6.25C301,59.31,269.3,35.21,258.37,17.08c-2.06-3.41-2.7-5.48-4.41-6.66-1-.72-.49-1.79-.45-5,.07-5,.75-3,7.13,2.28,3.82,3.15,5.14,4.05,5.25,5.05-.62.42-2.22,0-3-.17-.13,0-1.71-.45-1.82-.42C261,12.81,293,49.1,293.35,49.51Z"/><path class="a" d="M278.79,102.86c.94-3,29.67-12.46,30-28.07,0-1.2-6-61.26-6.56-62.86-1-2.88-1-2.45-.17-5.25C303.31,2,303.49,2,304.5,4c12.33,23.91,4,13.28,3,12.95,0,0,4.75,50,4.77,53.23.21,31.55-33.16,33.71-33.46,32.71C278.85,102.67,278.85,103,278.79,102.86Z"/><path d="M230.62,68.55c-4.86,2.61-9.93,4.65-14.92,6.78-1.47,10.78-4,15.71-29.87,29.3-4.17,2.19-29.79,8-33.68,8,4.09-3.41,65-24.7,60-36.59-26.43,5.1-12.78-21.8-3.68-16,3.74,2.38,6.12,7.53,6.7,8.55,2-.54,10.41-4.15,10.8-4.42C215,50.81,208,68,213.77,53.8c1.62-4,22.92-8.27,34.79.32a1.3,1.3,0,0,1,.44,1.95c-3.56,6.62-1,3.73-11.82,9.1,3.45,3.6,13.23,4.46,19.89-1.13,3.63-3.05-.65-2.14-5.23-15-.91-2.55-2.09-1.44-1.85-3.21.72-5.37.52-6.2,1.26-6.51.64.17,6.27,5.27,6.76,5.71,2.32,2.09.47,2-2.48,1.58,2.95,5.8,7.6,10.27,4.31,19.34-4,11.12-16.76,11.32-22.73,7.58a66.85,66.85,0,0,1-6.49-5C225.75,71.16,230.93,68.79,230.62,68.55Zm8.53-10.8c-1.9-2-12.11-2.17-12.28-1.27l5.86,4.5C234.72,60,237.05,58.78,239.14,57.75Zm-37.4,11.4c1.68.74,5.21.64,7,.17C204.5,62.37,198.05,67.52,201.75,69.15Z"/><path d="M126.21,69.72a.62.62,0,0,1,.27.78c-7.93,33.89,29,32.42,52.58,12.31,4.49-3.82,3.53-4.25.49-10.17-4-7.72-3.26-10.54-5.28-12.36-.9-.81.52-6.39.86-7.39,1-.17,7.26,6.6,7.69,7.31.9,1.49-1.89.91-3.52.51.28,2.3,10.05,14.74,2.88,25.08-7.29,10.5-46.37,33.35-57.92,5-2.77-6.8.46-20.36,1.94-21.07C126.56,70,125.68,70,126.21,69.72Z"/><path d="M211.91,15.67c-2.19-1.62-3.93-2.43-3.18-5.19C209.62,7.27,217.67.36,215,13c3.93,3.35-1.06,5.22-.61,12,.14,2.18,1.69,2.7,2.63,1.7.31-.33,1.26-1.81,1.64-1.86-1.09,7.12-4.41,6.25-5.26,4.45-1.35-2.87.28-7,1.66-11.58a3.29,3.29,0,0,0-1.59-1.31c-2.88,2.64-4.12,6.46-18.71,11.48A4.66,4.66,0,0,1,194,28C194.22,27.57,209.71,18.75,211.91,15.67Zm-1-5.05a4.56,4.56,0,0,0,2.54,1.6,3.74,3.74,0,0,0,.19-1C214.16,7.44,209.95,9.46,210.92,10.61Z"/><path d="M220,92.33c-7.24-3.72,2.89-12.51,4.23-9.57.56,1.23.17,1.4-1.18,3.44-1.83-2.27-3.17-.38-3.58,1.3a3.25,3.25,0,0,0,4.46,1c.9-.72,2.34-2,3.18-2.74.11.24.24.38.23.51-.41,5.5-5.26,4.46-8.88,11.81-2.81,5.71,12,1.63,13,1.55-2.73,4.6-22.3,9.54-11.49-7.29C219.7,92.19,219.64,92.85,220,92.33Z"/></svg>